# xmcd
#
# Track frame offsets:
#	150
#	18871
#	37589
#	54543
#	69151
#	85015
#	102705
#	118192
#	140642
#	158584
#	180259
#	203142
#	221035
#	237940
#	257803
#	270301
#
# Disc length: 3889 seconds
#
# Revision: 0
# Processed by: cddbd v1.5.1PL0 Copyright (c) Steve Scherf et al.
# Submitted via: dBpowerAMP V4.0
#
DISCID=d20f2f10
DTITLE=LENTAZOS - Radio Imagina
DYEAR=1900
DGENRE=Blues
TTITLE0=Sin bandera - Entra en mi vida
TTITLE1=Victor Manuel - Solo pienso en ti
TTITLE2=Franco de Vita - Te amo
TTITLE3=Mocedades - Tomame o dejame
TTITLE4=Son by Four - A puro dolor
TTITLE5=Andres de Leon - Quiero
TTITLE6=La Mafia - Me estoy enamorando
TTITLE7=Myriam Hernandez - Huele a peligro
TTITLE8=Jose Luis Perales - Amada mia
TTITLE9=Donato and Estefano - Estoy enamorado
TTITLE10=Emmanuel - Ese soy yo
TTITLE11=Paz Martinez - Amor pirata
TTITLE12=Leonardo Favio - Ella ya me olvido
TTITLE13=Rosario - Sabor sabor
TTITLE14=Joe Dassin - A ti
TTITLE15=Simone - Procuro Olvidarte
EXTD=LENTAZOS
EXTT0=
EXTT1=
EXTT2=
EXTT3=
EXTT4=
EXTT5=
EXTT6=
EXTT7=
EXTT8=
EXTT9=
EXTT10=
EXTT11=
EXTT12=
EXTT13=
EXTT14=
EXTT15=
PLAYORDER=
